<svg xmlns="http://www.w3.org/2000/svg" width="64" height="64" viewBox="0 0 64 64" role="img" aria-label="FamilyCare logo">
  <rect x="4" y="4" width="56" height="56" rx="16" fill="#ffffff"/>
  <path d="M32 52s-17-9.8-22.2-22.4C6.1 20.6 11 12 20.2 12c5.2 0 9.2 2.8 11.8 6.6C34.6 14.8 38.6 12 43.8 12 53 12 57.9 20.6 54.2 29.6 49 42.2 32 52 32 52Z" fill="#2F6FBA" opacity="0.95"/>
  <path d="M21 34c3.2 4 6.8 6 11 6s7.8-2 11-6" fill="none" stroke="#fff" stroke-width="4" stroke-linecap="round"/>
  <circle cx="24" cy="27" r="3" fill="#fff"/>
  <circle cx="40" cy="27" r="3" fill="#fff"/>
</svg>
